<?xml version="1.0" encoding="utf-8"?>
<!-- Generator: Adobe Illustrator 26.0.0, SVG Export Plug-In . SVG Version: 6.00 Build 0)  -->
<svg version="1.1" id="Livello_1" xmlns="http://www.w3.org/2000/svg" xmlns:xlink="http://www.w3.org/1999/xlink" x="0px" y="0px"
	 viewBox="0 0 2000 2000" style="enable-background:new 0 0 2000 2000;" xml:space="preserve">
<style type="text/css">
	.st0{fill:#848484;}
	.st1{fill:#F27F28;}
	.st2{fill:#FFFFFF;}
</style>
<g>
	<path class="st0" d="M1765,1999.4H235.7c-50.3,0-91-40.7-91-91v-30c0-50.3,40.7-91,91-91H1765c50.3,0,91,40.7,91,91v30
		C1856,1958.6,1815.2,1999.4,1765,1999.4z"/>
	<polygon class="st1" points="517,1220 440.4,1475.3 1573,1475.3 1496.5,1220 	"/>
	<polygon class="st1" points="1130.8,0 882.6,0 745.8,456.5 1267.6,456.5 	"/>
	<polygon class="st1" points="1326.7,653.4 686.7,653.4 593,966.3 1420.4,966.3 	"/>
	<polygon class="st2" points="1420.4,966.3 593,966.3 517,1220 1496.5,1220 	"/>
	<polygon class="st2" points="1267.6,456.5 745.8,456.5 686.7,653.4 1326.7,653.4 	"/>
	<polygon class="st2" points="346.9,1787.3 1666.5,1787.3 1573,1475.3 440.4,1475.3 	"/>
</g>
</svg>
