<?xml version="1.0" encoding="utf-8"?>
<!-- Generator: Adobe Illustrator 26.0.0, SVG Export Plug-In . SVG Version: 6.00 Build 0)  -->
<svg version="1.1" id="Livello_1" xmlns="http://www.w3.org/2000/svg" xmlns:xlink="http://www.w3.org/1999/xlink" x="0px" y="0px"
	 viewBox="0 0 26 26" style="enable-background:new 0 0 26 26;" xml:space="preserve">
<style type="text/css">
	.st0{fill:#FFFFFF;}
</style>
<g transform="translate(0,-952.36216)">
	<path d="M17.1,960.7c-0.3,0-0.6,0.1-0.8,0.3v-0.8c0-0.8-0.6-1.4-1.4-1.4c-0.3,0-0.6,0.1-0.8,0.3v-0.4c0-0.8-0.6-1.4-1.4-1.4
		s-1.4,0.6-1.4,1.4v0c-0.2-0.2-0.5-0.3-0.8-0.3c-0.8,0-1.4,0.6-1.4,1.4v5.7l-0.6-1.1c-0.3-0.5-0.8-0.7-1.3-0.7
		c-0.2,0-0.4,0.1-0.5,0.2c-0.7,0.4-0.9,1.2-0.5,1.9l1.9,3.3v0c0.6,1.1,1.2,2.2,1.9,2.9c0.8,0.8,1.8,1.3,3.4,1.3
		c1.3,0,2.5-0.4,3.5-1.2c0.9-0.8,1.5-2,1.5-3.4v-6.7C18.4,961.3,17.8,960.7,17.1,960.7z M17.9,968.7c0,1.3-0.5,2.3-1.3,3
		s-1.9,1-3.1,1c-1.5,0-2.3-0.4-3-1.1c-0.7-0.7-1.2-1.7-1.9-2.8v0l-1.9-3.3c-0.2-0.4-0.1-0.9,0.3-1.1c0.4-0.2,0.9-0.1,1.1,0.3l1.1,2
		c0,0,0,0,0,0l0.6,1.1c0.1,0.1,0.2,0.2,0.4,0.1c0.1-0.1,0.2-0.2,0.1-0.4c0,0,0,0,0,0l-0.6-1v-6.7c0-0.5,0.4-0.8,0.8-0.8
		s0.8,0.4,0.8,0.8v5.6c0,0.1,0.1,0.3,0.3,0.3c0.2,0,0.3-0.1,0.3-0.3v-6.8c0-0.5,0.4-0.8,0.8-0.8c0.5,0,0.8,0.4,0.8,0.8v6.4
		c0,0.2,0.1,0.3,0.3,0.3c0.2,0,0.3-0.1,0.3-0.3c0,0,0,0,0,0v-4.9c0-0.5,0.4-0.8,0.8-0.8c0.4,0,0.8,0.4,0.8,0.8v5.3
		c0,0.1,0.1,0.3,0.2,0.3h0c0.2,0,0.3-0.1,0.3-0.3v-3.4c0-0.4,0.4-0.8,0.8-0.8s0.8,0.4,0.8,0.8V968.7z"/>
	<path class="st0" d="M17.9,962.1v6.7c0,1.3-0.5,2.3-1.3,3s-1.9,1-3.1,1c-1.5,0-2.3-0.4-3-1.1c-0.7-0.7-1.2-1.7-1.9-2.8v0l-1.9-3.3
		c-0.2-0.4-0.1-0.9,0.3-1.1c0.4-0.2,0.9-0.1,1.1,0.3l1.1,2c0,0,0,0,0,0l0.6,1.1c0.1,0.1,0.2,0.2,0.4,0.1c0.1-0.1,0.2-0.2,0.1-0.4
		c0,0,0,0,0,0l-0.6-1v-6.7c0-0.5,0.4-0.8,0.8-0.8s0.8,0.4,0.8,0.8v5.6c0,0.1,0.1,0.3,0.3,0.3c0.2,0,0.3-0.1,0.3-0.3v-6.8
		c0-0.5,0.4-0.8,0.8-0.8c0.5,0,0.8,0.4,0.8,0.8v6.4c0,0.2,0.1,0.3,0.3,0.3c0.2,0,0.3-0.1,0.3-0.3c0,0,0,0,0,0v-4.9
		c0-0.5,0.4-0.8,0.8-0.8c0.4,0,0.8,0.4,0.8,0.8v5.3c0,0.1,0.1,0.3,0.2,0.3h0c0.2,0,0.3-0.1,0.3-0.3v-3.4c0-0.4,0.4-0.8,0.8-0.8
		S17.9,961.6,17.9,962.1z"/>
</g>
</svg>
