<svg xmlns="http://www.w3.org/2000/svg" viewBox="0 0 916.88 1000"><defs><style>.cls-1{fill:#e52e24;}.cls-2{fill:#fff;}</style></defs><g id="Livello_2" data-name="Livello 2"><g id="Livello_1-2" data-name="Livello 1"><g id="Icona_pdf"><g id="Cartella_pdf"><path d="M916.86,503.63q0-81.81-.16-163.66c0-3.13-2.24-6.91-4.57-9.31Q754,167.59,595.77,4.68A13.7,13.7,0,0,0,585,0Q408.41.21,231.84.14c-70.23.07-125,55-125.1,125.29q-.08,41.23,0,82.43v7.69h58.5v-8.11c0-27.49-.12-54.95.09-82.41a74.41,74.41,0,0,1,2.12-17.8c7.62-29.29,34.25-48.62,67-48.66q116.31-.07,232.59,0h99.24L647.33,142q7.75,8,15.49,15.94h-1.48V287.12s-3,113.11,116.26,113.11c36,0,61.91,0,80.46,0v7.1q0,48.15,0,96.28h0v91.44h0c.07,91.81.7,183,.7,275.76.52,41.45-31.38,70.79-70.93,70.65q-73.19-.32-146.31-.28c-.47,0-.92-.07-1.41-.07q-27,0-53.93,0l-74.37,0-74.37,0q-27,0-53.93,0c-.49,0-.94,0-1.41.07q-73.14,0-146.31.28c-39.55.14-71.45-29.2-71-70.65,1.18-98.07.38-196.15.38-294.24v-9H107c-.12,2-.28,3.31-.28,4.68q0,152,0,303.93a105.06,105.06,0,0,0,.87,15.87c9.43,63.15,61.18,107.89,125.1,107.91q44.9,0,89.79,0h8l70.84,0h221l70.84,0h8q44.89,0,89.79,0c63.92,0,115.67-44.76,125.1-107.91a107.73,107.73,0,0,0,.87-15.87q0-140.55,0-281.1h0V503.63Z"/><path d="M704.32,677v19.78H267.7V677Zm-437,173.77v19.88h437V850.8ZM704.16,609.69V590.25H267.59v19.44Zm.15,174V764.12H267.58v19.53Zm-.08-360.76H528.61v19.62H704.23Zm-.05,101.51V505H528.4V524.4Z"/></g><rect id="Rettangolo_pdf" class="cls-1" y="242.96" width="485.85" height="297.07" rx="11.31"/><g id="Testo_pdf"><path id="P" class="cls-2" d="M150.71,341.32a41.49,41.49,0,0,1,0,76.37Q138.88,423,122.9,423H106.28v28.31H67.44V336.06H122.9Q138.86,336.06,150.71,341.32Zm-18.43,48.14q4-3.54,3.95-10t-3.95-9.95Q128.34,366,120.43,366H106.28v27h14.15Q128.34,393,132.28,389.46Z"/><path id="D" class="cls-2" d="M188.08,336.06h56.77q19.26,0,34,7a53.32,53.32,0,0,1,22.88,20q8.14,13,8.14,30.61t-8.14,30.61a53.32,53.32,0,0,1-22.88,20q-14.73,7-34,7H188.08ZM243.21,421q12.51,0,20-7.16t7.49-20.16q0-13-7.49-20.16t-20-7.16H226.92V421Z"/><path id="F" class="cls-2" d="M362.86,365.35V385.1h48.05v29.3H362.86v36.86H324V336.06h93.64v29.29Z"/></g></g></g></g></svg>