<?xml version="1.0" encoding="utf-8"?>
<!-- Generator: Adobe Illustrator 26.0.0, SVG Export Plug-In . SVG Version: 6.00 Build 0)  -->
<svg version="1.1" id="Livello_1" xmlns="http://www.w3.org/2000/svg" xmlns:xlink="http://www.w3.org/1999/xlink" x="0px" y="0px"
	 viewBox="0 0 2000 2000" style="enable-background:new 0 0 2000 2000;" xml:space="preserve">
<style type="text/css">
	.st0{fill:#FFFFFF;}
	.st1{fill:#3A3939;}
	.st2{fill:#F27F28;}
	.st3{fill:#E42021;}
</style>
<g>
	<polygon class="st0" points="1154.3,1768.9 1154.3,1377.5 879.7,1377.5 879.7,1768.9 382.2,1768.9 382.2,1806.4 1651.9,1806.4 
		1651.9,1768.9 	"/>
	<rect x="879.7" y="1377.5" class="st1" width="274.6" height="65.4"/>
	<path class="st1" d="M1860.8,193.6H111.3c-61.3,0-111,49.7-111,111v978.7c0,61.3,49.7,111,111,111h1749.4c61.3,0,111-49.7,111-111
		V304.7C1971.8,243.4,1922.1,193.6,1860.8,193.6z M1948.8,1224.7c0,55.1-44.6,99.7-99.7,99.7H251.5c-55.1,0-99.7-44.6-99.7-99.7
		V354.9c0-55.1,44.6-99.7,99.7-99.7h1597.5c55.1,0,99.7,44.6,99.7,99.7V1224.7z"/>
	<path class="st0" d="M1888.7,193.6H182.9c-61.3,0-111,49.7-111,111v978.7c0,61.3,49.7,111,111,111h1705.7c61.3,0,111-49.7,111-111
		V304.7C1999.7,243.4,1950,193.6,1888.7,193.6z M1948.8,1224.7c0,55.1-44.6,99.7-99.7,99.7H251.5c-55.1,0-99.7-44.6-99.7-99.7V354.9
		c0-55.1,44.6-99.7,99.7-99.7h1597.5c55.1,0,99.7,44.6,99.7,99.7V1224.7z"/>
	<g>
		<path class="st2" d="M683.2,1106.7c-4.2,0.2-8.4,0-12.5-1.3c-3.7-1.1-8.1,1-11.7-1.6c-6.9,0.7-13.3-2.1-19.9-3.1
			c-7.1-1.1-13.9-3.8-20.7-6c-12.9-4.2-25-10-36.8-16.5c-9-5-17.5-10.7-25.8-16.8c-12.2-9-23-19.5-33.1-30.6
			c-9.2-10.2-17.3-21.5-24.3-33.5c-4.5-7.8-8.1-16.2-12.8-23.9c-2.6-4.3-10.4-29.5-11.8-35.2c-1.8-7.6-3.4-15.2-4.6-22.9
			c-0.7-4.2-0.4-8.5-1.4-12.5c-2.3-9.3-0.8-18.6-1.3-27.8c-0.2-4.2,0-8.4,1.3-12.5c1.1-3.7-1-8.1,1.6-11.7
			c-0.7-6.9,2.1-13.3,3.1-19.9c1.1-7.1,3.8-13.9,6-20.7c4.2-12.9,10-25,16.5-36.8c5-9,10.7-17.5,16.8-25.8c9-12.2,19.5-23,30.6-33.1
			c10.2-9.2,21.5-17.3,33.5-24.3c7.8-4.5,16.2-8.1,23.9-12.8c2.4-1.5,11.2-4.5,19.5-7.1c3.7-6.9,8.5-13.4,14.2-19.1l104.7-104.7
			c-1.3-3.3-2.6-6.6-3.9-10c-1.4-3.6-3.3-6.9-4.2-10.6c-0.7-2.8-1.8-5.2-3.7-7.3c-22.6,0-45.1,0-67.7,0c-4.4,0-6,0.8-7.2,5
			c-1,3.7-2.1,7.4-3.7,10.9c-3.1,6.7-5.5,13.8-8,20.7c-3.8,10.8-8.5,21.3-11.9,32.2c-0.3,1.1-1.9,1.9-3,2.5c-3,1.6-6.5,1.9-9.7,2.8
			c-14.1,4-27.6,9.9-41.8,13.3c-2.6,3.5-5.5,0.8-7.4-0.4c-11.8-7.5-23.3-15.4-34.9-23c-8.4-5.5-16.8-10.9-25.2-16.3
			c-3.4,2.7-6.4,5.4-9.6,7.6c-6.1,4.1-12,8.7-17.9,13.1c-9.2,6.9-18.8,13.2-28.1,19.9c-3.2,2.3-3.3,3.6-2,8c0.8,2.6,1.4,5.2,2.1,7.9
			c1.2,4.6,2,9.3,3.7,13.8c2.7,7.2,4.2,14.8,6.2,22.1c1.8,6.5,4.4,12.9,5,19.8c2.9,2.9,0.4,5.7-1,7.3c-4.4,5.1-7.9,10.8-11.8,16.3
			c-7,9.8-14.4,19.3-21.9,29.2c-3.8,0.2-8,0.8-12.1,1.2c-10.4,1-20.9,0.2-31.4,1.5c-9.4,1.2-19-0.5-28.5,1.6
			c-2.4,0.5-3.8,1.1-4.4,3.6c-2.1,8.5-5.4,16.7-7.8,25.2c-2.6,9.2-6,18.3-9.3,27.4c-1.6,4.5-4.5,9.3-3,14.8c0.6,0.2,1.7,0.3,2.3,0.9
			c4.7,4.7,10.1,8.4,15.3,12.4c6.3,4.9,12.1,10.5,18.5,15.3c2.9,2.1,5.5,4.4,8.1,6.8c1.5,1.4,3.4,2.4,5,3.7c1.8,1.4,3.2,3.2,5.5,4.3
			c2.2,1,3.6,3.2,3.5,6.5c-0.3,17.7-0.3,35.4,0,53.1c0,3.3-1.5,5.2-3.6,6.5c-6.7,4.3-12.4,9.8-18.7,14.6c-4,3-7.4,6.7-11.3,9.7
			c-7.4,5.7-15,11.2-21.9,17.5c-0.8,0.7-2,1-3.2,1.6c0.3,2.1,0.1,4.3,0.8,6.2c2.4,6.1,4.2,12.3,6.4,18.4c2.1,5.9,4.6,11.9,5.8,17.9
			c1.8,8.7,5.8,16.6,7.6,25.3c0.2,1,1.9,2.5,2.9,2.5c2.9,0,5.5,1.3,8.1,1.5c10.5,0.5,21-0.4,31.5,1.4c5.7,1,11.6-0.1,17.4,0.2
			c5.6,0.3,11.2,1.1,16.9,1.8c1.1,1.6,2.2,3.4,3.4,5c4.7,6.3,9.6,12.5,14.2,18.9c4.5,6.1,8.7,12.4,13.1,18.6
			c1.3,1.9,2.8,3.7,4.1,5.6c1.8,2.5-0.8,4.4-1.3,6.5c-1.4,6.6-3.5,13.1-5.3,19.6c-2.1,7.9-4.1,15.8-6.2,23.6
			c-1.6,6.1-3.3,12.2-5.1,18.3c-1.2,4.1-1,5.6,2.2,8c2.9,2.2,6.1,4.1,9.1,6.2c5.8,4.2,11.5,8.6,17.3,12.8c4.5,3.2,9.1,6.1,13.6,9.3
			c5.4,3.9,10.7,8,15.8,11.8c7.3-4.7,14.3-8.9,21.1-13.5c12.9-8.7,26.1-16.8,39-25.6c1.8-1.2,4.8-3.6,7.4-0.3
			c4.4,0.1,8.2,2.5,12.3,3.7c6.5,1.9,12.7,4.6,19.2,6.4c6.8,1.8,13,5.2,20.1,6c1,0.1,2.5,1.1,2.7,2c1.2,5.8,4.3,10.9,6.1,16.4
			c2.2,6.6,4.8,13.1,7.2,19.6c3.4,8.8,6.8,17.6,10.2,26.4c0.9,2.3,1.8,4.6,2.8,6.8c24.5,0,48.5,0,72.6,0c0.6-0.9,1.4-1.8,1.8-2.8
			c1.6-4.2,3-8.5,4.7-12.6c3.1-7.2,5.6-14.7,8.4-22c3.2-8.4,6.4-16.8,9.6-25.2c0.9-2.3,1.6-4.7,2.6-6.9c1.4-3.4,5.8-0.1,7.4-3.1
			c2.7-0.7,5.3-1.5,7.9-2.3l-65-65C697.3,1107.1,690.2,1106.3,683.2,1106.7z"/>
		<path class="st2" d="M1195.6,449c4.3-3.3,8.9-6.3,13.6-9.1c5.1-3,10.6-5.3,15.7-8.4c2.8-1.7,19.3-6.8,23.1-7.7c5-1.2,10-2.2,15-3
			c2.8-0.4,5.6-0.2,8.2-0.9c6.1-1.5,12.2-0.5,18.3-0.8c2.8-0.1,5.5,0,8.2,0.8c2.4,0.7,5.3-0.7,7.7,1.1c4.5-0.4,8.7,1.4,13,2.1
			c4.6,0.7,9.1,2.5,13.6,4c8.4,2.7,16.4,6.5,24.2,10.8c5.9,3.3,11.5,7,16.9,11c8,5.9,15.1,12.8,21.7,20.1c6,6.7,11.3,14.1,15.9,22
			c3,5.1,5.3,10.6,8.4,15.7c1.7,2.9,6.8,19.3,7.7,23.1c1.2,5,2.2,10,3,15c0.4,2.8,0.2,5.6,0.9,8.2c1.3,4.5,0.5,9,0.8,12.7
			c0,2.2,0,3.7,0,5.1c-0.1,2.8,0.1,5.5-0.8,8.2c-0.9,2.5,0.8,5.6-1.1,8.2c0.4,4.5-1.4,8.7-2.1,13c-0.7,4.6-2.5,9.1-4,13.6
			c-2.7,8.4-6.5,16.4-10.8,24.2c-3,5.4-6.5,10.6-10.1,15.6c13.9,15,21.5,34.4,21.5,55v51.5c2.3-1.5,4.6-3,6.7-4.8
			c3.7-3,7.7-5.5,11.4-8.3c1.9-1.5,2.1-2.5,1.3-4.9c-0.5-1.4-1.2-2.7-1.5-4.1c-0.8-4.6-2.5-8.9-3.5-13.3c-0.9-3.9-2.2-7.7-3.1-11.6
			c-1-4.3-2.4-8.6-3.4-12.9c-0.3-1.3-0.7-2.1,0.3-3.3c1.6-2,2.9-4.2,4.4-6.3c3-4.2,6.1-8.3,9.1-12.5c2.5-3.5,4.9-7.2,7.4-10.7
			c0.6-0.8,1.2-1.8,2.6-1.7c4.4,0.3,8.6-1.3,13-1c9.4,0.5,18.8-1.5,28.2-0.9c2.1,0.1,4-1.5,6.3-1c0.4,0.1,1.4-1.2,1.6-1.9
			c1.3-5.6,3.6-11,5.1-16.6c1.6-5.9,3.9-11.7,5.8-17.6c1.1-3.4,3.1-6.5,2.5-9.8c-13-10.5-25.6-20.7-38.2-30.8c0-13.2,0-26.2,0-39.3
			c12.6-10.2,25.2-20.4,38.1-30.8c-0.3-1.2,0.8-3-0.8-4.4c-1.8-7-4.7-13.7-6.7-20.6c-1.8-6.2-4-12.4-5.8-18.6
			c-0.3-1.2-0.9-2.4-1.8-2.3c-2.3,0.4-4.1-1-6.3-1.1c-6.2-0.2-12.5,0.5-18.7-0.8c-3.8-0.8-7.9,0-11.9-0.2c-3.8-0.2-7.7-0.7-11.9-1.1
			c-2.1-2.9-4.4-6.1-6.8-9.3c-4.5-6.2-9-12.5-13.5-18.8c-0.8-1.1-1.5-2.3-2.4-3.3c-1.4-1.7,0.4-2.9,0.7-4.2
			c0.9-4.4,2.2-8.6,3.3-12.9c1.4-5.1,2.9-10.3,4.2-15.4c1-3.9,1.8-7.8,2.9-11.7c1.2-4.1,1.3-4.1-2-6.3c-2.6-1.8-5.2-3.5-7.8-5.4
			c-6.2-4.6-12.4-9.2-18.6-13.8c-3.1-2.3-6.3-4.4-9.3-6.5c-3.5,2.4-6.8,4.5-10.1,6.5c-7.7,4.6-14.8,10.2-22.6,14.6
			c-2.6,1.5-5.2,3-7.6,4.8c-1,0.8-1.9,1-3,0.6c-4.9-1.6-9.7-3.4-14.6-5c-6.6-2.1-13-4.9-19.8-6.3c-1.2-0.2-1.8-0.9-2.2-2
			c-1.3-4.8-3.7-9.3-5.2-14.1c-2.1-6.4-4.8-12.7-7.2-19c-0.9-2.3-2.2-4.6-2.8-7c-0.5-1.9-1.2-3.4-2.4-4.8c-14.8,0-29.6,0-44.4,0
			c-2.9,0-4,0.5-4.7,3.3c-0.6,2.5-1.4,4.8-2.4,7.1c-2.1,4.4-3.6,9-5.2,13.6c-2.5,7.1-5.6,13.9-7.8,21.1c-0.2,0.7-1.2,1.3-2,1.7
			c-2,1.1-4.3,1.2-6.4,1.8c-9.2,2.6-18.1,6.5-27.4,8.8c-1.7,2.3-3.6,0.5-4.8-0.3c-7.7-4.9-15.3-10.1-22.9-15.1
			c-5.5-3.6-11-7.1-16.5-10.7c-2.2,1.8-4.2,3.5-6.3,5c-4,2.7-7.8,5.7-11.7,8.6c-6,4.5-12.3,8.7-18.4,13.1c-2.1,1.5-2.2,2.4-1.3,5.2
			c0.5,1.7,0.9,3.4,1.4,5.2c0.8,3,1.3,6.1,2.4,9c1.7,4.7,2.8,9.7,4.1,14.5c1.2,4.3,2.9,8.5,3.3,13c1.5,1.5,0.8,3,0,4.1h15.4
			C1167.7,436.2,1182.7,440.7,1195.6,449z"/>
		<path class="st2" d="M1576.2,969.4c0-8.9,0-17.8,0-26.7c8.6-6.9,17.1-13.8,25.9-20.9c-0.2-0.8,0.6-2-0.6-3
			c-1.3-4.7-3.2-9.3-4.5-14c-1.2-4.2-2.7-8.4-3.9-12.6c-0.2-0.8-0.6-1.7-1.2-1.6c-1.6,0.3-2.8-0.7-4.3-0.7
			c-4.2-0.2-8.5,0.3-12.7-0.5c-2.6-0.5-5.4,0-8.1-0.1c-2.6-0.1-5.2-0.5-8-0.8c-1.4-2-3-4.2-4.6-6.3c-3.1-4.2-6.1-8.5-9.2-12.7
			c-0.5-0.7-1-1.5-1.6-2.2c-1-1.1,0.3-1.9,0.5-2.9c0.6-3,1.5-5.9,2.3-8.8c0.9-3.5,1.9-7,2.9-10.5c0.7-2.6,1.2-5.3,2-7.9
			c0.8-2.8,0.9-2.8-1.3-4.2c-1.8-1.2-3.6-2.4-5.3-3.7c-4.2-3.1-8.4-6.3-12.6-9.4c-2.1-1.5-4.3-3-6.3-4.4c-2.3,1.7-4.6,3.1-6.8,4.4
			c-5.2,3.2-10,6.9-15.3,9.9c-1.8,1-3.5,2-5.1,3.2c-0.7,0.5-1.3,0.7-2,0.4c-3.3-1.1-6.6-2.3-9.9-3.4c-4.5-1.4-8.8-3.3-13.5-4.2
			c-0.8-0.2-1.3-0.6-1.5-1.4c-0.9-3.3-2.5-6.3-3.5-9.6c-1.4-4.4-3.2-8.6-4.9-12.9c-0.6-1.6-1.5-3.1-1.9-4.7
			c-0.3-1.3-0.8-2.3-1.7-3.2c-10,0-20.1,0-30.1,0c-2,0-2.7,0.3-3.2,2.2c-0.4,1.7-0.9,3.3-1.7,4.8c0,0.1-0.1,0.1-0.1,0.2v57
			c1.5-0.3,3-0.7,4.6-0.9c1.9-0.3,3.8-0.2,5.6-0.6c4.1-1,8.3-0.4,12.4-0.6c1.9-0.1,3.7,0,5.6,0.6c1.7,0.5,3.6-0.5,5.2,0.7
			c3.1-0.3,5.9,0.9,8.8,1.4c3.1,0.5,6.2,1.7,9.2,2.7c5.7,1.9,11.1,4.4,16.4,7.3c4,2.2,7.8,4.8,11.5,7.5c5.4,4,10.2,8.7,14.7,13.6
			c4.1,4.6,7.7,9.6,10.8,14.9c2,3.5,3.6,7.2,5.7,10.6c1.2,1.9,4.6,13.1,5.2,15.6c0.8,3.4,1.5,6.8,2,10.2c0.3,1.9,0.1,3.8,0.6,5.6
			c0.9,3.1,0.3,6.1,0.6,8.6c0,1.5,0,2.5,0,3.5c-0.1,1.9,0.1,3.7-0.6,5.6c-0.6,1.7,0.5,3.8-0.7,5.5c0.3,3.1-0.9,5.9-1.4,8.8
			c-0.5,3.1-1.7,6.2-2.7,9.2c-1.9,5.7-4.4,11.1-7.3,16.4c-2.2,4-4.8,7.8-7.5,11.5c-4,5.4-8.7,10.2-13.6,14.7
			c-4.6,4.1-9.6,7.7-14.9,10.8c-3.5,2-7.2,3.6-10.6,5.7c-1.9,1.2-13.1,4.6-15.7,5.2c-3.4,0.8-6.8,1.5-10.2,2
			c-1.9,0.3-3.8,0.2-5.6,0.6c-4.1,1-8.3,0.4-12.4,0.6c-1.9,0.1-3.7,0-5.6-0.6c-1.7-0.5-3.6,0.5-5.2-0.7c-3.1,0.3-5.9-0.9-8.8-1.4
			c-3.1-0.5-6.2-1.7-9.2-2.7c-5.7-1.9-11.1-4.4-16.4-7.3c-0.3-0.2-0.6-0.4-1-0.6l-45.1,45.1c1.8,1.3,3.7,2.5,5.6,3.8
			c2.4,1.7,4.8,3.5,7,5.2c3.2-2.1,6.4-4,9.4-6c5.7-3.9,11.6-7.5,17.3-11.4c0.8-0.6,2.1-1.6,3.3-0.1c2,0.1,3.6,1.1,5.5,1.7
			c2.9,0.8,5.6,2.1,8.5,2.8c3,0.8,5.8,2.3,9,2.7c0.4,0,1.1,0.5,1.2,0.9c0.5,2.6,1.9,4.8,2.7,7.3c1,2.9,2.1,5.8,3.2,8.7
			c1.5,3.9,3,7.8,4.5,11.7c0.4,1,0.8,2,1.2,3c10.9,0,21.6,0,32.3,0c0.3-0.4,0.6-0.8,0.8-1.3c0.7-1.9,1.3-3.8,2.1-5.6
			c1.4-3.2,2.5-6.5,3.7-9.8c1.4-3.7,2.8-7.5,4.3-11.2c0.4-1,0.7-2.1,1.2-3.1c0.6-1.5,2.6-0.1,3.3-1.4c7-1.7,13.6-4.7,20.6-6.5
			c1.3-1.5,2.4-0.2,3.6,0.2c0.6,0.2,1,0.7,1.5,1c5.3,3.5,10.7,7.1,16,10.6c3,2,6.2,3.9,9.5,5.9c0.6-0.8,1.1-1.6,1.7-2
			c2.3-1.7,4.7-3.3,7-5c2.6-2,5.5-3.6,8-5.6c2.5-2,5.2-3.7,7.7-5.7c1.3-1,1.4-1.7,0.9-3.3c-0.3-0.9-0.8-1.8-1-2.8
			c-0.5-3.1-1.7-6-2.4-9.1c-0.6-2.7-1.5-5.2-2.1-7.9c-0.7-2.9-1.6-5.8-2.3-8.8c-0.2-0.9-0.5-1.4,0.2-2.2c1.1-1.3,2-2.8,3-4.2
			c2.1-2.8,4.2-5.6,6.2-8.5c1.7-2.4,3.3-4.9,5-7.3c0.4-0.6,0.8-1.2,1.8-1.2c3,0.2,5.8-0.9,8.8-0.7c6.4,0.4,12.8-1,19.2-0.6
			c1.4,0.1,2.7-1,4.3-0.7c0.3,0.1,1-0.8,1.1-1.3c0.9-3.8,2.4-7.4,3.4-11.2c1.1-4,2.7-8,4-11.9c0.7-2.3,2.1-4.4,1.7-6.7
			C1593.3,983.2,1584.7,976.3,1576.2,969.4z"/>
	</g>
	<g>
		<path class="st3" d="M1127.7,513.3l-106.5,42.8c0.8,0,1.5-0.2,2.3-0.2c32.6,0,30.6,35.4,30.6,35.4V808c0,0-0.3,7,5.1,7
			c6,0,5.6-7.2,5.6-7.2l-0.1-179.8c0,0-1.6-31.5,30.6-31.5s31,31.4,31,31.4v243.4c0,0,0.5,5,4.5,5c4,0,30.1-67.8,30.1-67.8
			s14.4-47.8,82.3-35.1c1.2,0.2-5.4,22-5.4,22l-43,123.5l35.3,7.7l170.1,37.2V708.4c0-15.2-6.1-29.9-16.8-40.7L1200,484.3
			L1127.7,513.3L1127.7,513.3z"/>
		<path class="st3" d="M1236.5,1126.4l-139.7-29.7c-22.3,14.4-51.4,24.6-89,24.6c-71.1,0-109.3-33.6-129.9-71.2l-74.7-15.9l0,0
			l-35.3-7.5l-15.9-3.4l0,0l-114.5-24.4c2.9,7.4,7.2,14.3,13,20.1l190.8,190.8c10.8,10.8,25.4,16.8,40.7,16.8H1152
			c15.2,0,29.9-6.1,40.7-16.8l76.5-76.5L1236.5,1126.4L1236.5,1126.4z"/>
		<path class="st3" d="M882.8,670c27.4,0,27.1,31.6,27.1,31.6l0.2,114.4c0,0-0.1,5.5,5.3,5.5c5.1,0,4.5-5.5,4.5-5.5l0.3-189.3
			c0,0-1.8-37.1,30.9-37.1c33.2,0,31.4,36.5,31.4,36.5v179.2c0,0-0.2,6.5,4.8,6.5c5.4,0,5-6.6,5-6.6l0.3-213.8c0,0-0.8-17.6,10-28
			l-80.2,32.2v0l-210,84.3l0,0l-78.7,31.6V796l142,31.1l0,0l78.4,17.2V701.6C854.1,701.6,853.6,670,882.8,670z"/>
		<path class="st0" d="M990.1,874l33,7.2l0,0l171.8,37.6l43-123.5c0,0,6.6-21.7,5.4-22c-67.9-12.7-82.3,35.1-82.3,35.1
			s-26.1,67.8-30.1,67.8c-4,0-4.5-5-4.5-5V627.8c0,0,1.3-31.4-31-31.4s-30.6,31.5-30.6,31.5l0.1,179.8c0,0,0.4,7.2-5.6,7.2
			c-5.4,0-5.1-7-5.1-7V591.3c0,0,2-35.4-30.6-35.4c-0.8,0-1.5,0.1-2.3,0.2l-18.5,7.4c-10.8,10.5-10,28-10,28l-0.3,213.8
			c0,0,0.4,6.6-5,6.6c-5,0-4.8-6.5-4.8-6.5V626.1c0,0,1.8-36.5-31.4-36.5c-32.6,0-30.9,37.1-30.9,37.1L920,816.1
			c0,0,0.6,5.5-4.5,5.5c-5.4,0-5.3-5.5-5.3-5.5l-0.2-114.4c0,0,0.3-31.6-27.1-31.6c-29.2,0-28.6,31.6-28.6,31.6v142.6l118.1,25.9
			l0,0L990.1,874z"/>
		<path class="st0" d="M966.1,1068.8l-88.1-18.7c20.6,37.6,58.8,71.2,129.9,71.2c37.6,0,66.6-10.2,89-24.6L966.1,1068.8
			L966.1,1068.8z"/>
	</g>
	<g>
		<g>
			<polygon class="st2" points="1194.7,938.4 1014.2,1059.6 1232.7,1106 1413.7,986.3 			"/>
			<polygon class="st2" points="347.2,752.8 144.7,874.5 354.8,919.3 550.3,797.3 			"/>
			<polygon class="st2" points="779.1,847.4 579.9,967.1 799.2,1013.8 976.3,890.6 			"/>
			<polygon class="st2" points="71.9,692.5 71.9,731.2 117.9,702.6 			"/>
			<polygon class="st2" points="1636.6,1035.2 1452.2,1152.8 1666.6,1198.4 1844.5,1080.7 			"/>
			<polygon class="st2" points="1999.7,1173.3 1886.9,1245.3 1999.7,1269.3 			"/>
			<polygon class="st0" points="550.3,797.3 354.8,919.3 579.9,967.1 779.1,847.4 			"/>
			<polygon class="st0" points="117.9,702.6 71.9,731.2 71.9,859 144.7,874.5 347.2,752.8 			"/>
			<polygon class="st0" points="976.3,890.6 799.2,1013.8 1014.2,1059.6 1194.7,938.4 			"/>
			<polygon class="st0" points="1413.7,986.3 1232.7,1106 1452.2,1152.8 1636.6,1035.2 			"/>
			<polygon class="st0" points="1999.7,1114.7 1844.5,1080.7 1666.6,1198.4 1886.9,1245.3 1999.7,1173.3 			"/>
		</g>
		<g>
			<polygon class="st2" points="1041,376.4 959,560.5 1163.2,478.5 1238.8,301 			"/>
			<polygon class="st2" points="629.7,533.2 543.2,727.3 748,645.2 827.8,457.7 			"/>
			<polygon class="st2" points="226,687.2 135.1,891.2 333.8,811.4 417.8,614 			"/>
			<polygon class="st2" points="1805.9,193.6 1791.3,226.3 1869.2,193.6 			"/>
			<polygon class="st2" points="1520.2,193.6 1452,219.7 1374.5,393.7 1579.2,311.5 1629.3,193.6 			"/>
			<polygon class="st0" points="417.8,614 333.8,811.4 543.2,727.3 629.7,533.2 			"/>
			<polygon class="st0" points="827.8,457.7 748,645.2 959,560.5 1041,376.4 			"/>
			<polygon class="st0" points="1238.8,301 1163.2,478.5 1374.5,393.7 1452,219.7 			"/>
			<polygon class="st0" points="1629.3,193.6 1579.2,311.5 1791.3,226.3 1805.9,193.6 			"/>
			<polygon class="st0" points="71.9,745.9 71.9,916.6 135.1,891.2 226,687.2 			"/>
		</g>
	</g>
</g>
</svg>
