<?xml version="1.0" encoding="utf-8"?>
<!-- Generator: Adobe Illustrator 26.0.0, SVG Export Plug-In . SVG Version: 6.00 Build 0)  -->
<svg version="1.1" xmlns="http://www.w3.org/2000/svg" xmlns:xlink="http://www.w3.org/1999/xlink" x="0px" y="0px"
	 viewBox="0 0 2000 2000" style="enable-background:new 0 0 2000 2000;" xml:space="preserve">
<style type="text/css">
	.st0{fill:#BBBBBB;}
</style>
<g id="Ingranaggio">
	<path class="st0" d="M1718.86,759.83c-6.56-1.64-12.94-4.25-18.7-7.8c-30.94-18.84-40.77-59.39-21.89-90.32
		c60.45-99.36,45.74-221.33-36.52-303.55c-82.35-82.17-204.14-96.71-303.59-36.21c-5.67,3.5-11.97,6.07-18.53,7.67
		c-34.84,8.64-70.91-13.16-79.42-48.4C1212.82,168.25,1116.29,92.33,1000,92.33c-116.25,0-212.78,75.88-240.21,188.85
		c-5.01,20.65-19.19,37.18-38.82,45.29c-19.5,8.07-41.04,6.43-59.26-4.7c-99.19-60.41-221.2-45.87-303.5,36.39
		c-82.21,82.26-96.84,204.18-36.25,303.63c3.5,5.72,6.07,11.97,7.71,18.61c8.51,35.23-13.21,70.82-48.44,79.38
		C168.25,787.18,92.33,883.71,92.33,1000s75.92,212.82,188.89,240.21c6.56,1.6,12.81,4.17,18.66,7.8
		c14.98,9.13,25.48,23.49,29.65,40.51c4.12,17.11,1.37,34.75-7.76,49.82c-60.45,99.28-45.83,221.24,36.39,303.41
		c82.26,82.17,204.22,96.88,303.46,36.43c5.94-3.63,12.28-6.29,18.75-7.89c35.59-8.33,70.87,13.3,79.42,48.4
		c27.39,113.02,123.92,188.98,240.21,188.98s212.82-75.96,240.21-188.8c1.6-6.56,4.17-12.94,7.71-18.7
		c18.88-30.85,59.21-40.77,90.41-21.89c99.36,60.45,221.33,45.65,303.41-36.43c82.26-82.26,96.88-204.23,36.43-303.5
		c-3.63-5.94-6.29-12.23-7.89-18.61c-8.51-35.28,13.21-70.91,48.4-79.51c113.02-27.39,188.98-123.92,188.98-240.21
		S1831.7,787.18,1718.86,759.83z M1675.87,1063.82c-132.34,32.18-213.98,166.02-181.98,298.63c6.03,24.73,15.87,48.4,29.16,70.38
		c25,40.86-1.06,72.06-9.66,80.66c-8.6,8.6-39.71,34.66-80.75,9.66c-116.29-70.73-268.84-33.86-339.75,82.52
		c-13.21,21.81-23,45.38-29.07,70.29c-11.3,46.54-51.72,50.17-63.82,50.17s-52.52-3.63-63.82-50.26
		c-27.43-112.93-128.93-188.98-240.39-188.98c-19.19,0-38.69,2.3-58.1,7c-24.77,6.03-48.49,15.78-70.47,29.16
		c-40.91,25.08-72.06-0.97-80.71-9.66c-8.6-8.6-34.61-39.71-9.71-80.66c34.35-56.46,44.72-122.85,29.12-187.03
		c-15.6-64.17-55.22-118.42-111.51-152.73c-21.81-13.3-45.47-23.13-70.38-29.16c-46.54-11.3-50.17-51.72-50.17-63.82
		c0-12.1,3.63-52.52,50.17-63.82c132.47-32.13,214.11-166.07,182.02-298.49c-6.07-25.04-15.91-48.84-29.16-70.47
		c-24.95-40.95,1.11-72.11,9.71-80.71c8.51-8.55,39.84-34.79,80.57-9.75c68.03,41.53,149.36,47.87,223.15,17.46
		c73.79-30.49,126.93-92.5,145.86-170.14v-0.04c11.3-46.54,51.72-50.17,63.82-50.17s52.52,3.63,63.82,50.17
		c32.18,132.47,166.2,214.33,298.63,182.02c25-6.07,48.75-15.91,70.38-29.16c40.86-24.86,72.15,1.2,80.66,9.66
		c8.51,8.6,34.66,39.8,9.66,80.75c-70.82,116.43-33.86,268.84,82.52,339.75c21.81,13.25,45.38,23.05,70.29,29.12
		c46.54,11.3,50.17,51.72,50.17,63.82C1726.13,1012.1,1722.5,1052.52,1675.87,1063.82z"/>
	<path class="st0" d="M1000,600c-220.56,0-400,179.44-400,400c0,220.61,179.44,400,400,400c220.61,0,400-179.39,400-400
		C1400,779.44,1220.61,600,1000,600z M1000,1200c-110.3,0-200-89.75-200-200c0-110.3,89.7-200,200-200c110.25,0,200,89.7,200,200
		C1200,1110.25,1110.25,1200,1000,1200z"/>
</g>
</svg>
