<svg xmlns="http://www.w3.org/2000/svg" width="26" height="208">
<circle fill-opacity=".78" cy="117" cx="13" r="11" fill="#fff"/>
<circle fill-opacity=".78" cy="143" cx="13" r="11" fill="#fff"/>
<path d="M9.5,93.3H7.2v-1.7h5.2v5.2h-1.7v-2.2l-4,4l-1.2-1.2L9.5,93.3z M18.8,90.4v-1.7h-2.2l4-4l-1.2-1.2l-4,4v-2.2  h-1.7v5.2h5.1V90.4z" fill="#cccccc"/>
<path d="M13,110c-3.9,0-7,3.1-7,7s3.1,7,7,7l0,0c3.9,0,7-3.1,7-7l0,0C20,113.1,16.9,110,13,110z M12,113h2v2h-2V113z   M12,116h2v5h-2V116z" fill="#cccccc"/>
<path d="M8.7,70.6h2.4v1.9H5.5v-5.6h1.9v2.4l4.4-4.4l1.3,1.3L8.7,70.6z M14.9,57.5v1.9h2.4l-4.4,4.4l1.3,1.3l4.4-4.4  v2.4h1.9v-5.6C20.5,57.5,14.9,57.5,14.9,57.5z" fill="#cccccc"/>
<path d="M17.5,37.8v2.2h-9v-2.2H17.5z" fill="#cccccc"/>
<path d="M11.8,8.5v3.3H8.5v2.2h3.3v3.4h2.2v-3.3h3.4v-2.2h-3.3V8.5H11.8z" fill="#cccccc"/>
<path d="M13,136l-6.1,6.1h4.4v7.9h3.5v-7.9h4.4L13,136z" fill="#cccccc"/>
<g>
	<g>
		<path d="M7.6,168.2c0-0.4,0.2-0.7,0.4-0.9c0.2-0.2,0.5-0.3,0.9-0.3c0.6,0,1.1,0.4,1.1,1c0,0.3-0.1,0.6-0.4,0.7
			c0.4,0.1,0.6,0.5,0.6,0.9c0,0.8-0.7,1.2-1.4,1.2c-0.4,0-0.8-0.1-1.1-0.4c-0.2-0.2-0.4-0.6-0.4-0.9h0.9c0,0.3,0.2,0.5,0.5,0.5
			c0.3,0,0.5-0.2,0.5-0.5c0-0.3-0.2-0.5-0.5-0.5c-0.1,0-0.1,0-0.2,0v-0.6h0.1c0.2,0,0.4-0.1,0.4-0.4c0-0.2-0.2-0.4-0.4-0.4
			c-0.2,0-0.4,0.2-0.4,0.4H7.6z" fill="#cccccc"/>
		<path d="M13,167.2l-1,1.2l0,0c0.2-0.1,0.3-0.1,0.5-0.1c0.7,0,1.1,0.6,1.1,1.3c0,0.9-0.7,1.4-1.5,1.4c-0.3,0-0.7-0.1-1-0.3
			c-0.3-0.2-0.5-0.6-0.5-1c0-0.5,0.3-1,0.6-1.4l0.8-1H13z M12.6,169.6c0-0.3-0.2-0.6-0.6-0.6c-0.3,0-0.6,0.3-0.6,0.6
			c0,0.3,0.3,0.6,0.6,0.6C12.4,170.2,12.6,169.9,12.6,169.6z" fill="#cccccc"/>
		<path d="M16.9,169c0,0.9-0.5,1.9-1.5,1.9s-1.5-1-1.5-1.9s0.5-1.9,1.5-1.9S16.9,168.1,16.9,169z M14.8,169c0,0.3,0.1,1.1,0.6,1.1
			c0.5,0,0.6-0.8,0.6-1.1s-0.1-1.1-0.6-1.1C14.9,167.9,14.8,168.6,14.8,169z" fill="#cccccc"/>
		<path d="M17.9,168.5c-0.4,0-0.7-0.3-0.7-0.7c0-0.4,0.3-0.7,0.7-0.7c0.4,0,0.7,0.3,0.7,0.7C18.6,168.2,18.3,168.5,17.9,168.5z
			 M17.9,167.5c-0.2,0-0.3,0.1-0.3,0.3c0,0.2,0.1,0.3,0.3,0.3c0.2,0,0.3-0.1,0.3-0.3C18.2,167.7,18.1,167.5,17.9,167.5z" fill="#cccccc"/>
	</g>
	<path d="M15.4,161.5c2,0,3.5,0.8,4.4,2.6c0.3,0.5,0.2,1.1-0.1,1.4c-0.6,0.5-1.4,0.3-1.7-0.4c-0.3-0.8-0.8-1.4-1.6-1.8
		c-0.8-0.4-1.6-0.4-2.4-0.3c-1.7,0.2-3.2,1-4.5,2.2c0,0-0.1,0.1-0.1,0.1c-0.1,0.1-0.3,0.1-0.4,0c-0.1-0.1-0.1-0.3,0-0.4
		c0.3-0.3,0.6-0.7,1-1c1-0.9,2.2-1.6,3.5-2C14,161.6,14.7,161.5,15.4,161.5z M12.2,176.3c1.4-0.4,2.6-1.1,3.7-2.1
		c0.4-0.3,0.7-0.7,1-1c0,0,0,0,0,0c0.1-0.1-0.1-0.3-0.2-0.2c0,0,0,0,0,0c0,0,0,0-0.1,0c0,0,0,0-0.1,0c-0.4,0.3-0.8,0.7-1.3,0.9
		c-1.5,0.9-3.1,1.4-4.8,1.1c-1.1-0.2-2-0.8-2.4-1.9c-0.1-0.2-0.2-0.4-0.3-0.5c-0.3-0.4-0.9-0.4-1.4-0.1c-0.4,0.3-0.6,0.9-0.3,1.4
		c0.9,1.7,2.4,2.6,4.7,2.6c0,0,0,0,0,0C11.4,176.5,11.7,176.4,12.2,176.3z" fill="#cccccc"/>
</g>
<path d="M14,200l0.6,0.6l-0.4,0.4l-0.2,0.2l-1.5,1.5l-0.6-0.6l1-1c-3.3,0-6-2.7-6-6c0-2.2,1.2-4.2,3-5.2l0.5,0.8  C9,191.5,8,193.1,8,195c0,2.8,2.2,5,5,5l-1-1l0.6-0.6L14,200z M13.5,189l1.1-1.1l-0.6-0.6l-1.5,1.5l-0.2,0.2l-0.4,0.4l0.5,0.5l0,0  l0,0l1.5,1.5l0.6-0.6l-1-1c2.5,0.3,4.5,2.4,4.5,5c0,1.9-1,3.5-2.5,4.4L16,200c1.8-1,3-3,3-5.2C19,191.8,16.6,189.3,13.5,189z" fill="#cccccc"/>
</svg>