<svg xmlns="http://www.w3.org/2000/svg" width="26" height="208">
<circle fill-opacity=".78" cy="117" cx="13" r="11" fill="#fff"/>
<circle fill-opacity=".78" cy="143" cx="13" r="11" fill="#fff"/>
<path d="M9.5,93.3H7.2v-1.7h5.2v5.2h-1.7v-2.2l-4,4l-1.2-1.2L9.5,93.3z M18.8,90.4v-1.7h-2.2l4-4l-1.2-1.2l-4,4v-2.2  h-1.7v5.2h5.1V90.4z" fill="#cccccc"/>
<path d="M13,110c-3.9,0-7,3.1-7,7s3.1,7,7,7l0,0c3.9,0,7-3.1,7-7l0,0C20,113.1,16.9,110,13,110z M12,113h2v2h-2V113z   M12,116h2v5h-2V116z" fill="#cccccc"/>
<path d="M8.7,70.6h2.4v1.9H5.5v-5.6h1.9v2.4l4.4-4.4l1.3,1.3L8.7,70.6z M14.9,57.5v1.9h2.4l-4.4,4.4l1.3,1.3l4.4-4.4  v2.4h1.9v-5.6C20.5,57.5,14.9,57.5,14.9,57.5z" fill="#cccccc"/>
<path d="M17.5,37.8v2.2h-9v-2.2H17.5z" fill="#cccccc"/>
<path d="M11.8,8.5v3.3H8.5v2.2h3.3v3.4h2.2v-3.3h3.4v-2.2h-3.3V8.5H11.8z" fill="#cccccc"/>
<path d="M13,136l-6.1,6.1h4.4v7.9h3.5v-7.9h4.4L13,136z" fill="#cccccc"/>
<path d="M17.1,168.6c0-0.1,0-0.1,0-0.2v-0.1v-0.1l0,0l-0.8,0.1l0,0v0.1v0.5l0,0l0,0l0,0l0,0l0,0l0,0l0,0l0,0l0,0l0,0  l0,0l0,0l0,0l0,0l0,0l0,0l0,0l0,0c0,0.6,0,1.3-0.1,2c0.3-0.1,0.6-0.2,0.9-0.3c0.1-0.6,0.1-1.1,0.1-1.7c0-0.1,0-0.2,0-0.3H17.1  L17.1,168.6z M8.4,172.2L6,171.5l0.5-0.5c-0.6-0.5-1-1.2-1-2.1c0-0.6,0.2-1.2,0.6-1.7c0.6-0.7,1.4-1.2,2.3-1.6  c-0.1,0.3-0.1,0.7-0.2,1c-0.4,0.2-0.8,0.4-1.1,0.7c-0.4,0.3-0.7,0.8-0.8,1.3c-0.1,0.3,0,0.7,0.2,1c0.1,0.3,0.3,0.5,0.5,0.7l0.5-0.5  L8.4,172.2L8.4,172.2z M11.3,165c0.6-0.1,1.1-0.1,1.7-0.1c1.2,0,2.5,0.2,3.6,0.5c1.6,0.5,3.8,1.6,3.9,3.6c0,0.6-0.2,1.2-0.6,1.7  c-1.5,1.8-4.6,2.4-6.9,2.4c-0.6,0-1.3,0-1.9-0.1l0.1-0.8c0.6,0.1,1.2,0.1,1.8,0.1c1.9,0,4.4-0.4,5.8-1.7c0.4-0.4,0.8-0.9,0.8-1.5  c0-1-1-1.7-1.8-2.2c-1.4-0.8-3.2-1.1-4.9-1.1c-0.6,0-1.3,0-2,0.2C11.1,165.6,11.2,165.3,11.3,165L11.3,165z M15.2,173.7  c0.3-0.1,0.7-0.1,1-0.2c-0.6,1.4-1.6,2.9-3.3,3c-0.6,0-1.2-0.2-1.7-0.6c-1.8-1.5-2.4-4.6-2.4-6.9c0-1.2,0.2-2.5,0.5-3.6  c0.5-1.6,1.6-3.8,3.6-3.9c1,0,1.8,0.6,2.4,1.4l0.5-0.4l0.4,2.4l-2.2-1.1l0.5-0.4c-0.4-0.5-1-1.1-1.7-1.1c-1,0-1.7,1-2.2,1.8  c-0.8,1.4-1.1,3.2-1.1,4.9c0,1.9,0.4,4.4,1.7,5.8c0.4,0.4,0.9,0.8,1.5,0.8c1,0,1.7-1,2.2-1.8L15.2,173.7z" fill="#cccccc"/>
<path d="M14,200l0.6,0.6l-0.4,0.4l-0.2,0.2l-1.5,1.5l-0.6-0.6l1-1c-3.3,0-6-2.7-6-6c0-2.2,1.2-4.2,3-5.2l0.5,0.8  C9,191.5,8,193.1,8,195c0,2.8,2.2,5,5,5l-1-1l0.6-0.6L14,200z M13.5,189l1.1-1.1l-0.6-0.6l-1.5,1.5l-0.2,0.2l-0.4,0.4l0.5,0.5l0,0  l0,0l1.5,1.5l0.6-0.6l-1-1c2.5,0.3,4.5,2.4,4.5,5c0,1.9-1,3.5-2.5,4.4L16,200c1.8-1,3-3,3-5.2C19,191.8,16.6,189.3,13.5,189z" fill="#cccccc"/>
</svg>