<svg xmlns="http://www.w3.org/2000/svg" viewBox="0 0 916.88 1000"><defs><style>.cls-1{fill:#da911a;}.cls-2{fill:#fff;}</style></defs><g id="Livello_2" data-name="Livello 2"><g id="Livello_1-2" data-name="Livello 1"><g id="Icona_zip"><path id="Cartella_zip" d="M916.86,503.63q0-81.81-.16-163.66c0-3.13-2.24-6.91-4.57-9.31Q754,167.58,595.77,4.68A13.7,13.7,0,0,0,585,0Q408.41.21,231.84.14c-70.23.07-125,55-125.1,125.29q-.08,41.23,0,82.43v7.69h58.5v-8.11c0-27.49-.12-54.95.09-82.41a74.41,74.41,0,0,1,2.12-17.8c7.62-29.29,34.25-48.62,67-48.66q99.11-.06,198.18,0V89.12h64.56v33.32H432.56v33.33h64.56v33.32H432.56v33.32h64.56v33.33H432.56v33.32h64.56v33.32H432.56v33.33h64.56V389H432.56v33.32h64.56v33.32H432.56V489h64.56v33.32H432.56v33.32h64.56v67.58h-.42c-3.23,0-5.71,0-8.89,0-15.5,0-18.62,5.63-19.68,18.18Q461.77,716.91,456,792.51c-1.55,20,7.86,34.63,26.76,41.29a86.78,86.78,0,0,0,58.33.06c13.18-4.54,22.93-13.36,25.78-27.43,1.43-7,1-14.61.41-21.87-2.77-36.64-5.8-73.25-8.84-109.86-1.11-13.3-2-26.64-3.94-39.83-1.24-8.57-5.76-11.5-14.36-11.61-3.88,0-7.77,0-11.72,0H528V589h49.13V555.64H512.54V522.32h64.55V489H512.54V455.67h64.55V422.35H512.54V389h64.55V355.71H512.54V322.38h64.55V289.06H512.54V255.74h64.55V222.41H512.54V189.09h64.55V155.77H512.54V122.44h64.55V89.12H512.54V58.54h53.67L647.33,142q7.75,8,15.49,15.94h-1.48V287.12s-3,113.11,116.26,113.11c36,0,61.91,0,80.46,0v7.1q0,48.15,0,96.28h0v91.44h0c.07,91.81.7,183,.7,275.76.52,41.45-31.38,70.79-70.93,70.65q-73.19-.32-146.31-.28c-.47,0-.92-.07-1.41-.07q-27,0-53.93,0l-74.37,0-74.37,0q-27,0-53.93,0c-.49,0-.94,0-1.41.07q-73.14,0-146.31.28c-39.55.14-71.45-29.2-71-70.65,1.18-98.07.38-196.15.38-294.24v-9H107c-.12,2-.28,3.31-.28,4.68q0,152,0,303.93a105.06,105.06,0,0,0,.87,15.87c9.43,63.15,61.18,107.89,125.1,107.91q44.9,0,89.79,0h8l70.84,0h221l70.84,0h8q44.89,0,89.79,0c63.92,0,115.67-44.76,125.1-107.91a107.73,107.73,0,0,0,.87-15.87q0-140.55,0-281.1h0V503.63ZM552.42,795.94c3.09,8.48-.78,14.7-6.69,20.09-7,6.35-14.9,10.28-24.75,9.7-6.43-.38-12.9,0-19.36-.09-12.11-.11-21.38-6-28.22-15.36-8-10.95.64-26.27,15.21-27.21,7.76-.49,15.58-.08,23.37-.08v-.07c7.12,0,14.25-.14,21.36,0C542.78,783.19,549.49,787.9,552.42,795.94ZM518,676.88c8.43-.07,9.92-1.58,10-10.29,0-7.71,0-15.41,0-23.11h0V638c7.44,0,12.94,4.23,13.86,11.89,1.54,13,2.63,26.12,3.11,39.22.29,8.16-8.28,15.72-17.57,16.07-10,.37-20,.43-30,0-12-.51-18.4-8.11-17.51-20.16q1.19-16,2.57-31.93c.77-9,4.91-13.78,14.73-16v6.42h0c.05,8.19.13,16.11-.09,24-.19,6.91,2.76,9.84,9.57,9.43C510.4,676.7,514.2,676.91,518,676.88Z"/><rect id="Rettangolo_zip" class="cls-1" y="242.96" width="485.85" height="297.07" rx="11.31"/><g id="Testo_zip"><path id="Z" class="cls-2" d="M200.89,427.86v38.72H64.83V435.9l67.72-78.71H67V318.46H197.51v30.69l-67.72,78.71Z"/><path id="I" class="cls-2" d="M215.49,318.46h49.94V466.58H215.49Z"/><path id="P" class="cls-2" d="M396.62,325.24q15.24,6.76,23.49,19.46t8.25,29.63q0,16.92-8.25,29.62t-23.49,19.47q-15.24,6.76-35.76,6.77H339.49v36.39H289.55V318.46h71.31Q381.38,318.46,396.62,325.24Zm-23.7,61.89q5.08-4.54,5.08-12.8c0-5.51-1.69-9.77-5.08-12.81S364.46,357,357.68,357H339.49v34.7h18.19Q367.85,391.68,372.92,387.13Z"/></g></g></g></g></svg>