<?xml version="1.0" encoding="utf-8"?>
<!-- Generator: Adobe Illustrator 26.0.0, SVG Export Plug-In . SVG Version: 6.00 Build 0)  -->
<svg version="1.1" id="Livello_1" xmlns="http://www.w3.org/2000/svg" xmlns:xlink="http://www.w3.org/1999/xlink" x="0px" y="0px"
	 viewBox="0 0 26 26" style="enable-background:new 0 0 26 26;" xml:space="preserve">
<style type="text/css">
	.st0{fill:#FFFFFF;}
</style>
<g>
	<g>
		<path d="M18.1,10.7l-3.3-3.3c-0.6-0.6-1.5-0.6-2.1,0c-0.2,0.2-0.4,0.5-0.4,0.8c-0.6-0.5-1.5-0.5-2.1,0C9.9,8.4,9.8,8.8,9.8,9.1
			C9.2,8.8,8.5,8.9,8,9.4c-0.5,0.5-0.6,1.3-0.2,1.9c-0.3,0.1-0.6,0.2-0.8,0.4c-0.6,0.6-0.6,1.5,0,2.1l1.1,1.1v1.2c0,1.7,1.3,3,3,3
			h3.3c1,0,1.9-0.4,2.6-1.1l1.2-1.2c0.8-0.8,1.3-1.9,1.3-3.1C19.4,12.6,19,11.5,18.1,10.7z M17.7,16.4l-1.2,1.2
			c-0.6,0.6-1.3,0.9-2.1,0.9h-3.3c-1.3,0-2.3-1-2.3-2.3v-0.5l0.8,0.8c0.1,0.1,0.3,0.1,0.5,0c0.1-0.1,0.1-0.2,0.1-0.2
			c0-0.1,0-0.2-0.1-0.2l-2.5-2.5c-0.2-0.2-0.2-0.4-0.2-0.6c0-0.2,0.1-0.4,0.2-0.6c0.3-0.3,0.9-0.3,1.2,0L9.5,13
			c0.1,0.1,0.3,0.1,0.5,0c0.1-0.1,0.1-0.2,0.1-0.2c0-0.1,0-0.2-0.1-0.2L8.5,11c-0.3-0.3-0.3-0.9,0-1.2c0.3-0.3,0.9-0.3,1.2,0
			l1.5,1.5c0.1,0.1,0.4,0.1,0.5,0c0.1-0.1,0.1-0.2,0.1-0.2c0-0.1,0-0.2-0.1-0.2l-1-1c-0.2-0.2-0.2-0.4-0.2-0.6
			c0-0.2,0.1-0.4,0.2-0.6c0.3-0.3,0.9-0.3,1.2,0l1,1c0.1,0.1,0.3,0.1,0.5,0c0.1-0.1,0.1-0.2,0.1-0.2c0-0.1,0-0.2-0.1-0.2L13.2,9
			c-0.3-0.3-0.3-0.9,0-1.2c0.3-0.3,0.9-0.3,1.2,0l3.3,3.3c0.7,0.7,1.1,1.6,1.1,2.6C18.8,14.7,18.4,15.7,17.7,16.4z"/>
		<path class="st0" d="M18.8,13.8c0,1-0.4,1.9-1.1,2.6l-1.2,1.2c-0.6,0.6-1.3,0.9-2.1,0.9h-3.3c-1.3,0-2.3-1-2.3-2.3v-0.5l0.8,0.8
			c0.1,0.1,0.3,0.1,0.5,0c0.1-0.1,0.1-0.2,0.1-0.2c0-0.1,0-0.2-0.1-0.2l-2.5-2.5c-0.2-0.2-0.2-0.4-0.2-0.6c0-0.2,0.1-0.4,0.2-0.6
			c0.3-0.3,0.9-0.3,1.2,0L9.5,13c0.1,0.1,0.3,0.1,0.5,0c0.1-0.1,0.1-0.2,0.1-0.2c0-0.1,0-0.2-0.1-0.2L8.5,11c-0.3-0.3-0.3-0.9,0-1.2
			c0.3-0.3,0.9-0.3,1.2,0l1.5,1.5c0.1,0.1,0.4,0.1,0.5,0c0.1-0.1,0.1-0.2,0.1-0.2c0-0.1,0-0.2-0.1-0.2l-1-1
			c-0.2-0.2-0.2-0.4-0.2-0.6c0-0.2,0.1-0.4,0.2-0.6c0.3-0.3,0.9-0.3,1.2,0l1,1c0.1,0.1,0.3,0.1,0.5,0c0.1-0.1,0.1-0.2,0.1-0.2
			c0-0.1,0-0.2-0.1-0.2L13.2,9c-0.3-0.3-0.3-0.9,0-1.2c0.3-0.3,0.9-0.3,1.2,0l3.3,3.3C18.4,11.8,18.8,12.8,18.8,13.8z"/>
	</g>
</g>
</svg>
